<svg xmlns="http://www.w3.org/2000/svg" width="34.375" height="21.673" viewBox="0 0 34.375 21.673">
  <g id="Grupo_3597" data-name="Grupo 3597" transform="translate(-238.25 -806.25)">
    <circle id="Elipse_128" data-name="Elipse 128" cx="3" cy="3" r="3" transform="translate(240.875 814)" fill="none" stroke="#007aa3" stroke-linecap="round" stroke-linejoin="round" stroke-width="1.5"/>
    <circle id="Elipse_129" data-name="Elipse 129" cx="3" cy="3" r="3" transform="translate(252.875 814)" fill="none" stroke="#007aa3" stroke-linecap="round" stroke-linejoin="round" stroke-width="1.5"/>
    <circle id="Elipse_131" data-name="Elipse 131" cx="3" cy="3" r="3" transform="translate(246.875 807)" fill="none" stroke="#007aa3" stroke-linecap="round" stroke-linejoin="round" stroke-width="1.5"/>
    <circle id="Elipse_132" data-name="Elipse 132" cx="3" cy="3" r="3" transform="translate(258.875 807)" fill="none" stroke="#007aa3" stroke-linecap="round" stroke-linejoin="round" stroke-width="1.5"/>
    <circle id="Elipse_130" data-name="Elipse 130" cx="3" cy="3" r="3" transform="translate(264.875 814)" fill="none" stroke="#007aa3" stroke-linecap="round" stroke-linejoin="round" stroke-width="1.5"/>
    <path id="Trazado_2946" data-name="Trazado 2946" d="M3,19.483V17.989A2.989,2.989,0,0,1,5.989,15H8.977a2.989,2.989,0,0,1,2.989,2.989v1.494" transform="translate(236 807.69)" fill="none" stroke="#007aa3" stroke-linecap="round" stroke-linejoin="round" stroke-width="1.5"/>
    <path id="Trazado_2947" data-name="Trazado 2947" d="M3,19.483V17.989A2.989,2.989,0,0,1,5.989,15H8.977a2.989,2.989,0,0,1,2.989,2.989v1.494" transform="translate(247.954 807.69)" fill="none" stroke="#007aa3" stroke-linecap="round" stroke-linejoin="round" stroke-width="1.5"/>
    <path id="Trazado_2948" data-name="Trazado 2948" d="M3,19.483V17.989A2.989,2.989,0,0,1,5.989,15H8.977a2.989,2.989,0,0,1,2.989,2.989v1.494" transform="translate(259.909 807.69)" fill="none" stroke="#007aa3" stroke-linecap="round" stroke-linejoin="round" stroke-width="1.5"/>
  </g>
</svg>
