<svg xmlns="http://www.w3.org/2000/svg" width="33.031" height="23.789" viewBox="0 0 33.031 23.789">
  <g id="Grupo_3598" data-name="Grupo 3598" transform="translate(-762.459 -745.296)">
    <path id="Trazado_2949" data-name="Trazado 2949" d="M103.457,25.381l-2.564.724a20,20,0,0,0-3.827-1.3c-1.551-.264-5.379-.212-5.94,1.241s1.021,2.35,2,2.64,2.9-.491,3.912-.244-4.479,4.484-4.479,4.484l8.387,4.808,6.569-5.115Z" transform="translate(682.994 724.152)" fill="#fff" stroke="#007aa3" stroke-linejoin="round" stroke-width="1.5"/>
    <path id="Trazado_2950" data-name="Trazado 2950" d="M103.457,25.381l-2.564.724a20,20,0,0,0-3.827-1.3c-1.551-.264-5.379-.212-5.94,1.241s1.021,2.35,2,2.64,2.9-.491,3.912-.244-4.479,4.484-4.479,4.484l8.387,4.808,6.569-5.115Z" transform="translate(682.994 724.152)" fill="#fff" stroke="#007aa3" stroke-linecap="round" stroke-linejoin="round" stroke-width="1.5"/>
    <path id="Trazado_2951" data-name="Trazado 2951" d="M38.6,28.592l2.672.892a3.749,3.749,0,0,0,.925,2.094c.727.543,1.649.857,4.422.3,2.115-.426,6.953,3.865,9.13,5.925a1.52,1.52,0,0,1,.054,2.156l-.033.035a1.52,1.52,0,0,1-2.017.159l-1.677-1.275,1.608,1.219a1.52,1.52,0,0,1,.249,2.184l-.08.1a1.519,1.519,0,0,1-2.127.206l-1.739-1.415,1.792,1.457A1.52,1.52,0,1,1,49.84,44.96l-1.715-1.455.9.769a1.52,1.52,0,0,1,.041,2.273l-.1.1a1.519,1.519,0,0,1-2.018.035L36.661,37.858l-2.35-2.111Z" transform="translate(732.846 720.71)" fill="#fff" stroke="#007aa3" stroke-linejoin="round" stroke-width="1.5"/>
    <path id="Trazado_2952" data-name="Trazado 2952" d="M38.6,28.592l2.672.892a3.749,3.749,0,0,0,.925,2.094c.727.543,1.649.857,4.422.3,2.115-.426,6.953,3.865,9.13,5.925a1.52,1.52,0,0,1,.054,2.156l-.033.035a1.52,1.52,0,0,1-2.017.159l-1.677-1.275,1.608,1.219a1.52,1.52,0,0,1,.249,2.184l-.08.1a1.519,1.519,0,0,1-2.127.206l-1.739-1.415,1.792,1.457A1.52,1.52,0,1,1,49.84,44.96l-1.715-1.455.9.769a1.52,1.52,0,0,1,.041,2.273l-.1.1a1.519,1.519,0,0,1-2.018.035L36.661,37.858l-2.35-2.111Z" transform="translate(732.846 720.71)" fill="#fff" stroke="#007aa3" stroke-linecap="round" stroke-linejoin="round" stroke-width="1.5"/>
    <path id="Trazado_2953" data-name="Trazado 2953" d="M99.239,156.321l-1.406,1.063a1.361,1.361,0,0,1-1.907-.265l-.1-.131a1.362,1.362,0,0,1,.265-1.907l1.406-1.063a1.362,1.362,0,0,1,1.907.265l.1.131a1.362,1.362,0,0,1-.265,1.907" transform="translate(679.001 610.673)" fill="#fff" stroke="#007aa3" stroke-linejoin="round" stroke-width="1.5"/>
    <path id="Trazado_2954" data-name="Trazado 2954" d="M99.239,156.321l-1.406,1.063a1.361,1.361,0,0,1-1.907-.265l-.1-.131a1.362,1.362,0,0,1,.265-1.907l1.406-1.063a1.362,1.362,0,0,1,1.907.265l.1.131A1.362,1.362,0,0,1,99.239,156.321Z" transform="translate(679.001 610.673)" fill="#fff" stroke="#007aa3" stroke-linecap="round" stroke-linejoin="round" stroke-width="1.5"/>
    <path id="Trazado_2955" data-name="Trazado 2955" d="M83.112,128.073l-2.746,2.075a1.362,1.362,0,0,1-1.907-.265l-.1-.131a1.362,1.362,0,0,1,.265-1.907l2.746-2.076a1.362,1.362,0,0,1,1.907.265l.1.131a1.362,1.362,0,0,1-.265,1.907" transform="translate(694.358 635.51)" fill="#fff" stroke="#007aa3" stroke-linejoin="round" stroke-width="1.5"/>
    <path id="Trazado_2956" data-name="Trazado 2956" d="M83.112,128.073l-2.746,2.075a1.362,1.362,0,0,1-1.907-.265l-.1-.131a1.362,1.362,0,0,1,.265-1.907l2.746-2.076a1.362,1.362,0,0,1,1.907.265l.1.131A1.362,1.362,0,0,1,83.112,128.073Z" transform="translate(694.358 635.51)" fill="#fff" stroke="#007aa3" stroke-linecap="round" stroke-linejoin="round" stroke-width="1.5"/>
    <path id="Trazado_2957" data-name="Trazado 2957" d="M69.066,103.653l-3.683,2.785a1.362,1.362,0,0,1-1.907-.265l-.1-.132a1.362,1.362,0,0,1,.265-1.907l3.684-2.785a1.362,1.362,0,0,1,1.907.265l.1.131a1.362,1.362,0,0,1-.265,1.907" transform="translate(707.533 656.981)" fill="#fff" stroke="#007aa3" stroke-linejoin="round" stroke-width="1.5"/>
    <path id="Trazado_2958" data-name="Trazado 2958" d="M69.066,103.653l-3.683,2.785a1.362,1.362,0,0,1-1.907-.265l-.1-.132a1.362,1.362,0,0,1,.265-1.907l3.684-2.785a1.362,1.362,0,0,1,1.907.265l.1.131A1.362,1.362,0,0,1,69.066,103.653Z" transform="translate(707.533 656.981)" fill="#fff" stroke="#007aa3" stroke-linecap="round" stroke-linejoin="round" stroke-width="1.5"/>
    <path id="Trazado_2959" data-name="Trazado 2959" d="M52.453,89.47,49.773,91.5a1.455,1.455,0,0,1-2.038-.283l-.106-.141a1.455,1.455,0,0,1,.283-2.038l2.68-2.026a1.455,1.455,0,0,1,2.038.283l.106.14a1.455,1.455,0,0,1-.283,2.038" transform="translate(721.395 669.607)" fill="#fff" stroke="#007aa3" stroke-linejoin="round" stroke-width="1.5"/>
    <path id="Rectángulo_1588" data-name="Rectángulo 1588" d="M1.543,0H4.727A1.543,1.543,0,0,1,6.27,1.543v0A1.543,1.543,0,0,1,4.727,3.086H1.543A1.543,1.543,0,0,1,0,1.543v0A1.543,1.543,0,0,1,1.543,0Z" transform="translate(768.146 759.519) rotate(-37.088)" fill="#fff" stroke="#007aa3" stroke-linecap="round" stroke-linejoin="round" stroke-width="1.5"/>
    <rect id="Rectángulo_1589" data-name="Rectángulo 1589" width="11.376" height="4.007" transform="translate(763.496 755.897) rotate(-57.219)" fill="#fff" stroke="#007aa3" stroke-linejoin="round" stroke-width="1.5"/>
    <rect id="Rectángulo_1590" data-name="Rectángulo 1590" width="11.376" height="4.007" transform="translate(763.496 755.897) rotate(-57.219)" fill="#fff" stroke="#007aa3" stroke-linecap="round" stroke-linejoin="round" stroke-width="1.5"/>
    <rect id="Rectángulo_1591" data-name="Rectángulo 1591" width="4.007" height="11.376" transform="translate(785.361 748.671) rotate(-29.628)" fill="#fff" stroke="#007aa3" stroke-linejoin="round" stroke-width="1.5"/>
    <rect id="Rectángulo_1592" data-name="Rectángulo 1592" width="4.007" height="11.376" transform="translate(785.361 748.671) rotate(-29.628)" fill="#fff" stroke="#007aa3" stroke-linecap="round" stroke-linejoin="round" stroke-width="1.5"/>
  </g>
</svg>
